# xmcd
#
# Track frame offsets:
#	150
#	22650
#	36825
#	58425
#	78375
#	93375
#	109275
#	120975
#	134325
#	152700
#	168525
#	183225
#	198225
#	215550
#	233775
#	250575
#	267675
#	279450
#
# Disc length: 3990 seconds
#
# Revision: 1
# Processed by: cddbd v1.5.1PL0 Copyright (c) Steve Scherf et al.
# Submitted via: audiograbber 1.83.01
#
DISCID=fb0f9412
DTITLE=Various Artist - CS204
DYEAR=1900
DGENRE=Karaoke
TTITLE0=Martina McBride - Love's The Only House
TTITLE1=Alan Jackson - Pop A Top
TTITLE2=Dixie Chicks - Cowboy Take Me Away
TTITLE3=Tim McGraw - My Best Friend
TTITLE4=LeAnn Rimes - Big Deal
TTITLE5=Lonestar - Smile
TTITLE6=Brooks and Dunn - Beer 30
TTITLE7=Shania Twain - Come On Over
TTITLE8=Faith Hill - Breathe
TTITLE9=Reba McEntire - What Do You Say
TTITLE10=Wynonna - Can't Nobody Love You
TTITLE11=Andy Griggs - She's More
TTITLE12=Jo Dee Messina - Because You Love Me
TTITLE13=Gary Allan - Smoke Rings In The Dark
TTITLE14=Mark Wills - Back At One
TTITLE15=Chely Wright - It Was
TTITLE16=Sherrie Austin - Little Bird
TTITLE17=Dixie Chicks - Goodbye Earl
EXTD=
EXTT0=
EXTT1=
EXTT2=
EXTT3=
EXTT4=
EXTT5=
EXTT6=
EXTT7=
EXTT8=
EXTT9=
EXTT10=
EXTT11=
EXTT12=
EXTT13=
EXTT14=
EXTT15=
EXTT16=
EXTT17=
PLAYORDER=
